solid ASCII
  facet normal 0.000000e+00 -1.000000e+00 0.000000e+00
    outer loop
      vertex   0.000000e+00 -4.000000e+00 3.400000e+01
      vertex   0.000000e+00 -4.000000e+00 4.000000e+00
      vertex   6.000000e+00 -4.000000e+00 3.400000e+01
    endloop
  endfacet
  facet normal 0.000000e+00 -1.000000e+00 -0.000000e+00
    outer loop
      vertex   6.000000e+00 -4.000000e+00 3.400000e+01
      vertex   0.000000e+00 -4.000000e+00 4.000000e+00
      vertex   6.000000e+00 -4.000000e+00 4.000000e+00
    endloop
  endfacet
  facet normal 0.000000e+00 0.000000e+00 -1.000000e+00
    outer loop
      vertex   0.000000e+00 -1.800000e+01 3.400000e+01
      vertex   0.000000e+00 -4.000000e+00 3.400000e+01
      vertex   6.000000e+00 -1.800000e+01 3.400000e+01
    endloop
  endfacet
  facet normal 0.000000e+00 0.000000e+00 -1.000000e+00
    outer loop
      vertex   6.000000e+00 -1.800000e+01 3.400000e+01
      vertex   0.000000e+00 -4.000000e+00 3.400000e+01
      vertex   6.000000e+00 -4.000000e+00 3.400000e+01
    endloop
  endfacet
  facet normal 0.000000e+00 -1.000000e+00 0.000000e+00
    outer loop
      vertex   0.000000e+00 -1.800000e+01 5.700000e+01
      vertex   0.000000e+00 -1.800000e+01 3.400000e+01
      vertex   6.000000e+00 -1.800000e+01 5.700000e+01
    endloop
  endfacet
  facet normal 0.000000e+00 -1.000000e+00 -0.000000e+00
    outer loop
      vertex   6.000000e+00 -1.800000e+01 5.700000e+01
      vertex   0.000000e+00 -1.800000e+01 3.400000e+01
      vertex   6.000000e+00 -1.800000e+01 3.400000e+01
    endloop
  endfacet
  facet normal -0.000000e+00 8.137335e-01 5.812382e-01
    outer loop
      vertex   0.000000e+00 -1.300000e+01 5.000000e+01
      vertex   0.000000e+00 -1.800000e+01 5.700000e+01
      vertex   6.000000e+00 -1.300000e+01 5.000000e+01
    endloop
  endfacet
  facet normal 0.000000e+00 8.137335e-01 5.812382e-01
    outer loop
      vertex   6.000000e+00 -1.300000e+01 5.000000e+01
      vertex   0.000000e+00 -1.800000e+01 5.700000e+01
      vertex   6.000000e+00 -1.800000e+01 5.700000e+01
    endloop
  endfacet
  facet normal 0.000000e+00 1.000000e+00 0.000000e+00
    outer loop
      vertex   0.000000e+00 -1.300000e+01 4.100000e+01
      vertex   0.000000e+00 -1.300000e+01 5.000000e+01
      vertex   6.000000e+00 -1.300000e+01 4.100000e+01
    endloop
  endfacet
  facet normal 0.000000e+00 1.000000e+00 -0.000000e+00
    outer loop
      vertex   6.000000e+00 -1.300000e+01 4.100000e+01
      vertex   0.000000e+00 -1.300000e+01 5.000000e+01
      vertex   6.000000e+00 -1.300000e+01 5.000000e+01
    endloop
  endfacet
  facet normal -0.000000e+00 0.000000e+00 1.000000e+00
    outer loop
      vertex   0.000000e+00 -1.000000e+01 4.100000e+01
      vertex   0.000000e+00 -1.300000e+01 4.100000e+01
      vertex   6.000000e+00 -1.000000e+01 4.100000e+01
    endloop
  endfacet
  facet normal 0.000000e+00 0.000000e+00 1.000000e+00
    outer loop
      vertex   6.000000e+00 -1.000000e+01 4.100000e+01
      vertex   0.000000e+00 -1.300000e+01 4.100000e+01
      vertex   6.000000e+00 -1.300000e+01 4.100000e+01
    endloop
  endfacet
  facet normal 0.000000e+00 -1.000000e+00 0.000000e+00
    outer loop
      vertex   0.000000e+00 -1.000000e+01 5.700000e+01
      vertex   0.000000e+00 -1.000000e+01 4.100000e+01
      vertex   6.000000e+00 -1.000000e+01 5.700000e+01
    endloop
  endfacet
  facet normal 0.000000e+00 -1.000000e+00 -0.000000e+00
    outer loop
      vertex   6.000000e+00 -1.000000e+01 5.700000e+01
      vertex   0.000000e+00 -1.000000e+01 4.100000e+01
      vertex   6.000000e+00 -1.000000e+01 4.100000e+01
    endloop
  endfacet
  facet normal -0.000000e+00 8.137335e-01 5.812382e-01
    outer loop
      vertex   0.000000e+00 -5.000000e+00 5.000000e+01
      vertex   0.000000e+00 -1.000000e+01 5.700000e+01
      vertex   6.000000e+00 -5.000000e+00 5.000000e+01
    endloop
  endfacet
  facet normal 0.000000e+00 8.137335e-01 5.812382e-01
    outer loop
      vertex   6.000000e+00 -5.000000e+00 5.000000e+01
      vertex   0.000000e+00 -1.000000e+01 5.700000e+01
      vertex   6.000000e+00 -1.000000e+01 5.700000e+01
    endloop
  endfacet
  facet normal 0.000000e+00 9.986616e-01 -5.172077e-02
    outer loop
      vertex   0.000000e+00 -5.466111e+00 4.100000e+01
      vertex   0.000000e+00 -5.000000e+00 5.000000e+01
      vertex   6.000000e+00 -5.466111e+00 4.100000e+01
    endloop
  endfacet
  facet normal 0.000000e+00 9.986616e-01 -5.172077e-02
    outer loop
      vertex   6.000000e+00 -5.466111e+00 4.100000e+01
      vertex   0.000000e+00 -5.000000e+00 5.000000e+01
      vertex   6.000000e+00 -5.000000e+00 5.000000e+01
    endloop
  endfacet
  facet normal -0.000000e+00 0.000000e+00 1.000000e+00
    outer loop
      vertex   0.000000e+00 -2.466111e+00 4.100000e+01
      vertex   0.000000e+00 -5.466111e+00 4.100000e+01
      vertex   6.000000e+00 -2.466111e+00 4.100000e+01
    endloop
  endfacet
  facet normal 0.000000e+00 0.000000e+00 1.000000e+00
    outer loop
      vertex   6.000000e+00 -2.466111e+00 4.100000e+01
      vertex   0.000000e+00 -5.466111e+00 4.100000e+01
      vertex   6.000000e+00 -5.466111e+00 4.100000e+01
    endloop
  endfacet
  facet normal 0.000000e+00 -1.000000e+00 0.000000e+00
    outer loop
      vertex   0.000000e+00 -2.466111e+00 5.654744e+01
      vertex   0.000000e+00 -2.466111e+00 4.100000e+01
      vertex   6.000000e+00 -2.466111e+00 5.654744e+01
    endloop
  endfacet
  facet normal 0.000000e+00 -1.000000e+00 -0.000000e+00
    outer loop
      vertex   6.000000e+00 -2.466111e+00 5.654744e+01
      vertex   0.000000e+00 -2.466111e+00 4.100000e+01
      vertex   6.000000e+00 -2.466111e+00 4.100000e+01
    endloop
  endfacet
  facet normal 0.000000e+00 -8.137335e-01 5.812382e-01
    outer loop
      vertex   0.000000e+00 0.000000e+00 6.000000e+01
      vertex   0.000000e+00 -2.466111e+00 5.654744e+01
      vertex   6.000000e+00 0.000000e+00 6.000000e+01
    endloop
  endfacet
  facet normal 0.000000e+00 -8.137335e-01 5.812382e-01
    outer loop
      vertex   6.000000e+00 0.000000e+00 6.000000e+01
      vertex   0.000000e+00 -2.466111e+00 5.654744e+01
      vertex   6.000000e+00 -2.466111e+00 5.654744e+01
    endloop
  endfacet
  facet normal -0.000000e+00 8.653010e-01 5.012526e-01
    outer loop
      vertex   0.000000e+00 2.000000e+00 5.654744e+01
      vertex   0.000000e+00 0.000000e+00 6.000000e+01
      vertex   6.000000e+00 2.000000e+00 5.654744e+01
    endloop
  endfacet
  facet normal 0.000000e+00 8.653010e-01 5.012526e-01
    outer loop
      vertex   6.000000e+00 2.000000e+00 5.654744e+01
      vertex   0.000000e+00 0.000000e+00 6.000000e+01
      vertex   6.000000e+00 0.000000e+00 6.000000e+01
    endloop
  endfacet
  facet normal 0.000000e+00 1.000000e+00 0.000000e+00
    outer loop
      vertex   0.000000e+00 2.000000e+00 4.100000e+01
      vertex   0.000000e+00 2.000000e+00 5.654744e+01
      vertex   6.000000e+00 2.000000e+00 4.100000e+01
    endloop
  endfacet
  facet normal 0.000000e+00 1.000000e+00 -0.000000e+00
    outer loop
      vertex   6.000000e+00 2.000000e+00 4.100000e+01
      vertex   0.000000e+00 2.000000e+00 5.654744e+01
      vertex   6.000000e+00 2.000000e+00 5.654744e+01
    endloop
  endfacet
  facet normal -0.000000e+00 0.000000e+00 1.000000e+00
    outer loop
      vertex   0.000000e+00 5.000000e+00 4.100000e+01
      vertex   0.000000e+00 2.000000e+00 4.100000e+01
      vertex   6.000000e+00 5.000000e+00 4.100000e+01
    endloop
  endfacet
  facet normal 0.000000e+00 0.000000e+00 1.000000e+00
    outer loop
      vertex   6.000000e+00 5.000000e+00 4.100000e+01
      vertex   0.000000e+00 2.000000e+00 4.100000e+01
      vertex   6.000000e+00 2.000000e+00 4.100000e+01
    endloop
  endfacet
  facet normal 0.000000e+00 -1.000000e+00 0.000000e+00
    outer loop
      vertex   0.000000e+00 5.000000e+00 5.000000e+01
      vertex   0.000000e+00 5.000000e+00 4.100000e+01
      vertex   6.000000e+00 5.000000e+00 5.000000e+01
    endloop
  endfacet
  facet normal 0.000000e+00 -1.000000e+00 -0.000000e+00
    outer loop
      vertex   6.000000e+00 5.000000e+00 5.000000e+01
      vertex   0.000000e+00 5.000000e+00 4.100000e+01
      vertex   6.000000e+00 5.000000e+00 4.100000e+01
    endloop
  endfacet
  facet normal 0.000000e+00 -8.137335e-01 5.812382e-01
    outer loop
      vertex   0.000000e+00 1.000000e+01 5.700000e+01
      vertex   0.000000e+00 5.000000e+00 5.000000e+01
      vertex   6.000000e+00 1.000000e+01 5.700000e+01
    endloop
  endfacet
  facet normal 0.000000e+00 -8.137335e-01 5.812382e-01
    outer loop
      vertex   6.000000e+00 1.000000e+01 5.700000e+01
      vertex   0.000000e+00 5.000000e+00 5.000000e+01
      vertex   6.000000e+00 5.000000e+00 5.000000e+01
    endloop
  endfacet
  facet normal 0.000000e+00 1.000000e+00 0.000000e+00
    outer loop
      vertex   0.000000e+00 1.000000e+01 4.100000e+01
      vertex   0.000000e+00 1.000000e+01 5.700000e+01
      vertex   6.000000e+00 1.000000e+01 4.100000e+01
    endloop
  endfacet
  facet normal 0.000000e+00 1.000000e+00 -0.000000e+00
    outer loop
      vertex   6.000000e+00 1.000000e+01 4.100000e+01
      vertex   0.000000e+00 1.000000e+01 5.700000e+01
      vertex   6.000000e+00 1.000000e+01 5.700000e+01
    endloop
  endfacet
  facet normal -0.000000e+00 0.000000e+00 1.000000e+00
    outer loop
      vertex   0.000000e+00 1.300000e+01 4.100000e+01
      vertex   0.000000e+00 1.000000e+01 4.100000e+01
      vertex   6.000000e+00 1.300000e+01 4.100000e+01
    endloop
  endfacet
  facet normal 0.000000e+00 0.000000e+00 1.000000e+00
    outer loop
      vertex   6.000000e+00 1.300000e+01 4.100000e+01
      vertex   0.000000e+00 1.000000e+01 4.100000e+01
      vertex   6.000000e+00 1.000000e+01 4.100000e+01
    endloop
  endfacet
  facet normal 0.000000e+00 -1.000000e+00 0.000000e+00
    outer loop
      vertex   0.000000e+00 1.300000e+01 5.000000e+01
      vertex   0.000000e+00 1.300000e+01 4.100000e+01
      vertex   6.000000e+00 1.300000e+01 5.000000e+01
    endloop
  endfacet
  facet normal 0.000000e+00 -1.000000e+00 -0.000000e+00
    outer loop
      vertex   6.000000e+00 1.300000e+01 5.000000e+01
      vertex   0.000000e+00 1.300000e+01 4.100000e+01
      vertex   6.000000e+00 1.300000e+01 4.100000e+01
    endloop
  endfacet
  facet normal 0.000000e+00 -8.137335e-01 5.812382e-01
    outer loop
      vertex   0.000000e+00 1.800000e+01 5.700000e+01
      vertex   0.000000e+00 1.300000e+01 5.000000e+01
      vertex   6.000000e+00 1.800000e+01 5.700000e+01
    endloop
  endfacet
  facet normal 0.000000e+00 -8.137335e-01 5.812382e-01
    outer loop
      vertex   6.000000e+00 1.800000e+01 5.700000e+01
      vertex   0.000000e+00 1.300000e+01 5.000000e+01
      vertex   6.000000e+00 1.300000e+01 5.000000e+01
    endloop
  endfacet
  facet normal 0.000000e+00 1.000000e+00 0.000000e+00
    outer loop
      vertex   0.000000e+00 1.800000e+01 3.400000e+01
      vertex   0.000000e+00 1.800000e+01 5.700000e+01
      vertex   6.000000e+00 1.800000e+01 3.400000e+01
    endloop
  endfacet
  facet normal 0.000000e+00 1.000000e+00 -0.000000e+00
    outer loop
      vertex   6.000000e+00 1.800000e+01 3.400000e+01
      vertex   0.000000e+00 1.800000e+01 5.700000e+01
      vertex   6.000000e+00 1.800000e+01 5.700000e+01
    endloop
  endfacet
  facet normal 0.000000e+00 0.000000e+00 -1.000000e+00
    outer loop
      vertex   0.000000e+00 4.000000e+00 3.400000e+01
      vertex   0.000000e+00 1.800000e+01 3.400000e+01
      vertex   6.000000e+00 4.000000e+00 3.400000e+01
    endloop
  endfacet
  facet normal 0.000000e+00 0.000000e+00 -1.000000e+00
    outer loop
      vertex   6.000000e+00 4.000000e+00 3.400000e+01
      vertex   0.000000e+00 1.800000e+01 3.400000e+01
      vertex   6.000000e+00 1.800000e+01 3.400000e+01
    endloop
  endfacet
  facet normal 0.000000e+00 1.000000e+00 0.000000e+00
    outer loop
      vertex   0.000000e+00 4.000000e+00 4.000000e+00
      vertex   0.000000e+00 4.000000e+00 3.400000e+01
      vertex   6.000000e+00 4.000000e+00 4.000000e+00
    endloop
  endfacet
  facet normal 0.000000e+00 1.000000e+00 -0.000000e+00
    outer loop
      vertex   6.000000e+00 4.000000e+00 4.000000e+00
      vertex   0.000000e+00 4.000000e+00 3.400000e+01
      vertex   6.000000e+00 4.000000e+00 3.400000e+01
    endloop
  endfacet
  facet normal -0.000000e+00 0.000000e+00 1.000000e+00
    outer loop
      vertex   0.000000e+00 6.000000e+00 4.000000e+00
      vertex   0.000000e+00 4.000000e+00 4.000000e+00
      vertex   6.000000e+00 6.000000e+00 4.000000e+00
    endloop
  endfacet
  facet normal 0.000000e+00 0.000000e+00 1.000000e+00
    outer loop
      vertex   6.000000e+00 6.000000e+00 4.000000e+00
      vertex   0.000000e+00 4.000000e+00 4.000000e+00
      vertex   6.000000e+00 4.000000e+00 4.000000e+00
    endloop
  endfacet
  facet normal 0.000000e+00 1.000000e+00 0.000000e+00
    outer loop
      vertex   0.000000e+00 6.000000e+00 0.000000e+00
      vertex   0.000000e+00 6.000000e+00 4.000000e+00
      vertex   6.000000e+00 6.000000e+00 0.000000e+00
    endloop
  endfacet
  facet normal 0.000000e+00 1.000000e+00 -0.000000e+00
    outer loop
      vertex   6.000000e+00 6.000000e+00 0.000000e+00
      vertex   0.000000e+00 6.000000e+00 4.000000e+00
      vertex   6.000000e+00 6.000000e+00 4.000000e+00
    endloop
  endfacet
  facet normal 0.000000e+00 0.000000e+00 -1.000000e+00
    outer loop
      vertex   0.000000e+00 -6.000000e+00 0.000000e+00
      vertex   0.000000e+00 6.000000e+00 0.000000e+00
      vertex   6.000000e+00 -6.000000e+00 0.000000e+00
    endloop
  endfacet
  facet normal 0.000000e+00 0.000000e+00 -1.000000e+00
    outer loop
      vertex   6.000000e+00 -6.000000e+00 0.000000e+00
      vertex   0.000000e+00 6.000000e+00 0.000000e+00
      vertex   6.000000e+00 6.000000e+00 0.000000e+00
    endloop
  endfacet
  facet normal 0.000000e+00 -1.000000e+00 0.000000e+00
    outer loop
      vertex   0.000000e+00 -6.000000e+00 4.000000e+00
      vertex   0.000000e+00 -6.000000e+00 0.000000e+00
      vertex   6.000000e+00 -6.000000e+00 4.000000e+00
    endloop
  endfacet
  facet normal 0.000000e+00 -1.000000e+00 -0.000000e+00
    outer loop
      vertex   6.000000e+00 -6.000000e+00 4.000000e+00
      vertex   0.000000e+00 -6.000000e+00 0.000000e+00
      vertex   6.000000e+00 -6.000000e+00 0.000000e+00
    endloop
  endfacet
  facet normal -0.000000e+00 0.000000e+00 1.000000e+00
    outer loop
      vertex   0.000000e+00 -4.000000e+00 4.000000e+00
      vertex   0.000000e+00 -6.000000e+00 4.000000e+00
      vertex   6.000000e+00 -4.000000e+00 4.000000e+00
    endloop
  endfacet
  facet normal 0.000000e+00 0.000000e+00 1.000000e+00
    outer loop
      vertex   6.000000e+00 -4.000000e+00 4.000000e+00
      vertex   0.000000e+00 -6.000000e+00 4.000000e+00
      vertex   6.000000e+00 -6.000000e+00 4.000000e+00
    endloop
  endfacet
  facet normal 1.000000e+00 -0.000000e+00 0.000000e+00
    outer loop
      vertex   6.000000e+00 -6.000000e+00 4.000000e+00
      vertex   6.000000e+00 -6.000000e+00 0.000000e+00
      vertex   6.000000e+00 -4.000000e+00 4.000000e+00
    endloop
  endfacet
  facet normal 1.000000e+00 -0.000000e+00 0.000000e+00
    outer loop
      vertex   6.000000e+00 -4.000000e+00 4.000000e+00
      vertex   6.000000e+00 -6.000000e+00 0.000000e+00
      vertex   6.000000e+00 4.000000e+00 4.000000e+00
    endloop
  endfacet
  facet normal 1.000000e+00 0.000000e+00 0.000000e+00
    outer loop
      vertex   6.000000e+00 -4.000000e+00 4.000000e+00
      vertex   6.000000e+00 4.000000e+00 4.000000e+00
      vertex   6.000000e+00 4.000000e+00 3.400000e+01
    endloop
  endfacet
  facet normal 1.000000e+00 0.000000e+00 0.000000e+00
    outer loop
      vertex   6.000000e+00 -6.000000e+00 0.000000e+00
      vertex   6.000000e+00 6.000000e+00 0.000000e+00
      vertex   6.000000e+00 4.000000e+00 4.000000e+00
    endloop
  endfacet
  facet normal 1.000000e+00 -0.000000e+00 0.000000e+00
    outer loop
      vertex   6.000000e+00 4.000000e+00 4.000000e+00
      vertex   6.000000e+00 6.000000e+00 0.000000e+00
      vertex   6.000000e+00 6.000000e+00 4.000000e+00
    endloop
  endfacet
  facet normal 1.000000e+00 0.000000e+00 0.000000e+00
    outer loop
      vertex   6.000000e+00 1.800000e+01 3.400000e+01
      vertex   6.000000e+00 1.000000e+01 4.100000e+01
      vertex   6.000000e+00 4.000000e+00 3.400000e+01
    endloop
  endfacet
  facet normal 1.000000e+00 0.000000e+00 0.000000e+00
    outer loop
      vertex   6.000000e+00 4.000000e+00 3.400000e+01
      vertex   6.000000e+00 1.000000e+01 4.100000e+01
      vertex   6.000000e+00 5.000000e+00 4.100000e+01
    endloop
  endfacet
  facet normal 1.000000e+00 0.000000e+00 -0.000000e+00
    outer loop
      vertex   6.000000e+00 4.000000e+00 3.400000e+01
      vertex   6.000000e+00 5.000000e+00 4.100000e+01
      vertex   6.000000e+00 2.000000e+00 4.100000e+01
    endloop
  endfacet
  facet normal 1.000000e+00 -0.000000e+00 0.000000e+00
    outer loop
      vertex   6.000000e+00 1.000000e+01 4.100000e+01
      vertex   6.000000e+00 1.800000e+01 3.400000e+01
      vertex   6.000000e+00 1.300000e+01 4.100000e+01
    endloop
  endfacet
  facet normal 1.000000e+00 -0.000000e+00 0.000000e+00
    outer loop
      vertex   6.000000e+00 1.300000e+01 4.100000e+01
      vertex   6.000000e+00 1.800000e+01 3.400000e+01
      vertex   6.000000e+00 1.800000e+01 5.700000e+01
    endloop
  endfacet
  facet normal 1.000000e+00 0.000000e+00 0.000000e+00
    outer loop
      vertex   6.000000e+00 1.300000e+01 4.100000e+01
      vertex   6.000000e+00 1.800000e+01 5.700000e+01
      vertex   6.000000e+00 1.300000e+01 5.000000e+01
    endloop
  endfacet
  facet normal 1.000000e+00 0.000000e+00 0.000000e+00
    outer loop
      vertex   6.000000e+00 1.000000e+01 5.700000e+01
      vertex   6.000000e+00 5.000000e+00 5.000000e+01
      vertex   6.000000e+00 1.000000e+01 4.100000e+01
    endloop
  endfacet
  facet normal 1.000000e+00 0.000000e+00 0.000000e+00
    outer loop
      vertex   6.000000e+00 1.000000e+01 4.100000e+01
      vertex   6.000000e+00 5.000000e+00 5.000000e+01
      vertex   6.000000e+00 5.000000e+00 4.100000e+01
    endloop
  endfacet
  facet normal 1.000000e+00 0.000000e+00 0.000000e+00
    outer loop
      vertex   6.000000e+00 2.000000e+00 5.654744e+01
      vertex   6.000000e+00 -2.466111e+00 4.100000e+01
      vertex   6.000000e+00 2.000000e+00 4.100000e+01
    endloop
  endfacet
  facet normal 1.000000e+00 0.000000e+00 0.000000e+00
    outer loop
      vertex   6.000000e+00 2.000000e+00 4.100000e+01
      vertex   6.000000e+00 -2.466111e+00 4.100000e+01
      vertex   6.000000e+00 -4.000000e+00 3.400000e+01
    endloop
  endfacet
  facet normal 1.000000e+00 0.000000e+00 0.000000e+00
    outer loop
      vertex   6.000000e+00 2.000000e+00 4.100000e+01
      vertex   6.000000e+00 -4.000000e+00 3.400000e+01
      vertex   6.000000e+00 4.000000e+00 3.400000e+01
    endloop
  endfacet
  facet normal 1.000000e+00 0.000000e+00 0.000000e+00
    outer loop
      vertex   6.000000e+00 4.000000e+00 3.400000e+01
      vertex   6.000000e+00 -4.000000e+00 3.400000e+01
      vertex   6.000000e+00 -4.000000e+00 4.000000e+00
    endloop
  endfacet
  facet normal 1.000000e+00 0.000000e+00 0.000000e+00
    outer loop
      vertex   6.000000e+00 0.000000e+00 6.000000e+01
      vertex   6.000000e+00 -2.466111e+00 5.654744e+01
      vertex   6.000000e+00 2.000000e+00 5.654744e+01
    endloop
  endfacet
  facet normal 1.000000e+00 0.000000e+00 0.000000e+00
    outer loop
      vertex   6.000000e+00 2.000000e+00 5.654744e+01
      vertex   6.000000e+00 -2.466111e+00 5.654744e+01
      vertex   6.000000e+00 -2.466111e+00 4.100000e+01
    endloop
  endfacet
  facet normal 1.000000e+00 0.000000e+00 0.000000e+00
    outer loop
      vertex   6.000000e+00 -2.466111e+00 4.100000e+01
      vertex   6.000000e+00 -5.466111e+00 4.100000e+01
      vertex   6.000000e+00 -4.000000e+00 3.400000e+01
    endloop
  endfacet
  facet normal 1.000000e+00 0.000000e+00 0.000000e+00
    outer loop
      vertex   6.000000e+00 -4.000000e+00 3.400000e+01
      vertex   6.000000e+00 -5.466111e+00 4.100000e+01
      vertex   6.000000e+00 -1.000000e+01 4.100000e+01
    endloop
  endfacet
  facet normal 1.000000e+00 0.000000e+00 0.000000e+00
    outer loop
      vertex   6.000000e+00 -4.000000e+00 3.400000e+01
      vertex   6.000000e+00 -1.000000e+01 4.100000e+01
      vertex   6.000000e+00 -1.800000e+01 3.400000e+01
    endloop
  endfacet
  facet normal 1.000000e+00 0.000000e+00 0.000000e+00
    outer loop
      vertex   6.000000e+00 -1.800000e+01 3.400000e+01
      vertex   6.000000e+00 -1.000000e+01 4.100000e+01
      vertex   6.000000e+00 -1.300000e+01 4.100000e+01
    endloop
  endfacet
  facet normal 1.000000e+00 0.000000e+00 0.000000e+00
    outer loop
      vertex   6.000000e+00 -1.800000e+01 3.400000e+01
      vertex   6.000000e+00 -1.300000e+01 4.100000e+01
      vertex   6.000000e+00 -1.300000e+01 5.000000e+01
    endloop
  endfacet
  facet normal 1.000000e+00 0.000000e+00 -0.000000e+00
    outer loop
      vertex   6.000000e+00 -5.466111e+00 4.100000e+01
      vertex   6.000000e+00 -5.000000e+00 5.000000e+01
      vertex   6.000000e+00 -1.000000e+01 4.100000e+01
    endloop
  endfacet
  facet normal 1.000000e+00 0.000000e+00 0.000000e+00
    outer loop
      vertex   6.000000e+00 -1.000000e+01 4.100000e+01
      vertex   6.000000e+00 -5.000000e+00 5.000000e+01
      vertex   6.000000e+00 -1.000000e+01 5.700000e+01
    endloop
  endfacet
  facet normal 1.000000e+00 0.000000e+00 0.000000e+00
    outer loop
      vertex   6.000000e+00 -1.300000e+01 5.000000e+01
      vertex   6.000000e+00 -1.800000e+01 5.700000e+01
      vertex   6.000000e+00 -1.800000e+01 3.400000e+01
    endloop
  endfacet
  facet normal -1.000000e+00 0.000000e+00 0.000000e+00
    outer loop
      vertex   0.000000e+00 -6.000000e+00 4.000000e+00
      vertex   0.000000e+00 -4.000000e+00 4.000000e+00
      vertex   0.000000e+00 -6.000000e+00 0.000000e+00
    endloop
  endfacet
  facet normal -1.000000e+00 0.000000e+00 0.000000e+00
    outer loop
      vertex   0.000000e+00 -6.000000e+00 0.000000e+00
      vertex   0.000000e+00 -4.000000e+00 4.000000e+00
      vertex   0.000000e+00 4.000000e+00 4.000000e+00
    endloop
  endfacet
  facet normal -1.000000e+00 0.000000e+00 0.000000e+00
    outer loop
      vertex   0.000000e+00 -6.000000e+00 0.000000e+00
      vertex   0.000000e+00 4.000000e+00 4.000000e+00
      vertex   0.000000e+00 6.000000e+00 0.000000e+00
    endloop
  endfacet
  facet normal -1.000000e+00 0.000000e+00 0.000000e+00
    outer loop
      vertex   0.000000e+00 6.000000e+00 0.000000e+00
      vertex   0.000000e+00 4.000000e+00 4.000000e+00
      vertex   0.000000e+00 6.000000e+00 4.000000e+00
    endloop
  endfacet
  facet normal -1.000000e+00 0.000000e+00 0.000000e+00
    outer loop
      vertex   0.000000e+00 4.000000e+00 4.000000e+00
      vertex   0.000000e+00 -4.000000e+00 4.000000e+00
      vertex   0.000000e+00 4.000000e+00 3.400000e+01
    endloop
  endfacet
  facet normal -1.000000e+00 -0.000000e+00 0.000000e+00
    outer loop
      vertex   0.000000e+00 4.000000e+00 3.400000e+01
      vertex   0.000000e+00 -4.000000e+00 4.000000e+00
      vertex   0.000000e+00 -4.000000e+00 3.400000e+01
    endloop
  endfacet
  facet normal -1.000000e+00 0.000000e+00 0.000000e+00
    outer loop
      vertex   0.000000e+00 4.000000e+00 3.400000e+01
      vertex   0.000000e+00 -4.000000e+00 3.400000e+01
      vertex   0.000000e+00 2.000000e+00 4.100000e+01
    endloop
  endfacet
  facet normal -1.000000e+00 -0.000000e+00 0.000000e+00
    outer loop
      vertex   0.000000e+00 2.000000e+00 4.100000e+01
      vertex   0.000000e+00 -4.000000e+00 3.400000e+01
      vertex   0.000000e+00 -2.466111e+00 4.100000e+01
    endloop
  endfacet
  facet normal -1.000000e+00 0.000000e+00 0.000000e+00
    outer loop
      vertex   0.000000e+00 2.000000e+00 4.100000e+01
      vertex   0.000000e+00 -2.466111e+00 4.100000e+01
      vertex   0.000000e+00 2.000000e+00 5.654744e+01
    endloop
  endfacet
  facet normal -1.000000e+00 -0.000000e+00 0.000000e+00
    outer loop
      vertex   0.000000e+00 2.000000e+00 5.654744e+01
      vertex   0.000000e+00 -2.466111e+00 4.100000e+01
      vertex   0.000000e+00 -2.466111e+00 5.654744e+01
    endloop
  endfacet
  facet normal -1.000000e+00 0.000000e+00 0.000000e+00
    outer loop
      vertex   0.000000e+00 2.000000e+00 5.654744e+01
      vertex   0.000000e+00 -2.466111e+00 5.654744e+01
      vertex   0.000000e+00 0.000000e+00 6.000000e+01
    endloop
  endfacet
  facet normal -1.000000e+00 0.000000e+00 0.000000e+00
    outer loop
      vertex   0.000000e+00 -1.800000e+01 3.400000e+01
      vertex   0.000000e+00 -1.000000e+01 4.100000e+01
      vertex   0.000000e+00 -4.000000e+00 3.400000e+01
    endloop
  endfacet
  facet normal -1.000000e+00 0.000000e+00 0.000000e+00
    outer loop
      vertex   0.000000e+00 -4.000000e+00 3.400000e+01
      vertex   0.000000e+00 -1.000000e+01 4.100000e+01
      vertex   0.000000e+00 -5.466111e+00 4.100000e+01
    endloop
  endfacet
  facet normal -1.000000e+00 0.000000e+00 0.000000e+00
    outer loop
      vertex   0.000000e+00 -4.000000e+00 3.400000e+01
      vertex   0.000000e+00 -5.466111e+00 4.100000e+01
      vertex   0.000000e+00 -2.466111e+00 4.100000e+01
    endloop
  endfacet
  facet normal -1.000000e+00 0.000000e+00 0.000000e+00
    outer loop
      vertex   0.000000e+00 -1.800000e+01 5.700000e+01
      vertex   0.000000e+00 -1.300000e+01 5.000000e+01
      vertex   0.000000e+00 -1.800000e+01 3.400000e+01
    endloop
  endfacet
  facet normal -1.000000e+00 0.000000e+00 0.000000e+00
    outer loop
      vertex   0.000000e+00 -1.800000e+01 3.400000e+01
      vertex   0.000000e+00 -1.300000e+01 5.000000e+01
      vertex   0.000000e+00 -1.300000e+01 4.100000e+01
    endloop
  endfacet
  facet normal -1.000000e+00 0.000000e+00 0.000000e+00
    outer loop
      vertex   0.000000e+00 -1.800000e+01 3.400000e+01
      vertex   0.000000e+00 -1.300000e+01 4.100000e+01
      vertex   0.000000e+00 -1.000000e+01 4.100000e+01
    endloop
  endfacet
  facet normal -1.000000e+00 0.000000e+00 0.000000e+00
    outer loop
      vertex   0.000000e+00 -1.000000e+01 5.700000e+01
      vertex   0.000000e+00 -5.000000e+00 5.000000e+01
      vertex   0.000000e+00 -1.000000e+01 4.100000e+01
    endloop
  endfacet
  facet normal -1.000000e+00 0.000000e+00 0.000000e+00
    outer loop
      vertex   0.000000e+00 -1.000000e+01 4.100000e+01
      vertex   0.000000e+00 -5.000000e+00 5.000000e+01
      vertex   0.000000e+00 -5.466111e+00 4.100000e+01
    endloop
  endfacet
  facet normal -1.000000e+00 0.000000e+00 0.000000e+00
    outer loop
      vertex   0.000000e+00 2.000000e+00 4.100000e+01
      vertex   0.000000e+00 5.000000e+00 4.100000e+01
      vertex   0.000000e+00 4.000000e+00 3.400000e+01
    endloop
  endfacet
  facet normal -1.000000e+00 0.000000e+00 0.000000e+00
    outer loop
      vertex   0.000000e+00 4.000000e+00 3.400000e+01
      vertex   0.000000e+00 5.000000e+00 4.100000e+01
      vertex   0.000000e+00 1.000000e+01 4.100000e+01
    endloop
  endfacet
  facet normal -1.000000e+00 0.000000e+00 0.000000e+00
    outer loop
      vertex   0.000000e+00 4.000000e+00 3.400000e+01
      vertex   0.000000e+00 1.000000e+01 4.100000e+01
      vertex   0.000000e+00 1.800000e+01 3.400000e+01
    endloop
  endfacet
  facet normal -1.000000e+00 0.000000e+00 0.000000e+00
    outer loop
      vertex   0.000000e+00 1.800000e+01 3.400000e+01
      vertex   0.000000e+00 1.000000e+01 4.100000e+01
      vertex   0.000000e+00 1.300000e+01 4.100000e+01
    endloop
  endfacet
  facet normal -1.000000e+00 0.000000e+00 0.000000e+00
    outer loop
      vertex   0.000000e+00 1.800000e+01 3.400000e+01
      vertex   0.000000e+00 1.300000e+01 4.100000e+01
      vertex   0.000000e+00 1.300000e+01 5.000000e+01
    endloop
  endfacet
  facet normal -1.000000e+00 0.000000e+00 0.000000e+00
    outer loop
      vertex   0.000000e+00 5.000000e+00 4.100000e+01
      vertex   0.000000e+00 5.000000e+00 5.000000e+01
      vertex   0.000000e+00 1.000000e+01 4.100000e+01
    endloop
  endfacet
  facet normal -1.000000e+00 0.000000e+00 0.000000e+00
    outer loop
      vertex   0.000000e+00 1.000000e+01 4.100000e+01
      vertex   0.000000e+00 5.000000e+00 5.000000e+01
      vertex   0.000000e+00 1.000000e+01 5.700000e+01
    endloop
  endfacet
  facet normal -1.000000e+00 0.000000e+00 0.000000e+00
    outer loop
      vertex   0.000000e+00 1.300000e+01 5.000000e+01
      vertex   0.000000e+00 1.800000e+01 5.700000e+01
      vertex   0.000000e+00 1.800000e+01 3.400000e+01
    endloop
  endfacet
endsolid
